<svg xmlns="http://www.w3.org/2000/svg" viewBox="0 0 500 350" width="500" height="350"><title>Figura 5 — Congestionamento e externalidades de rede</title><rect x="0" y="0" width="500" height="350" fill="white"/><line x1="60.0" y1="320.0" x2="480.0" y2="320.0" stroke="#222222" stroke-width="1.2"/><line x1="60.0" y1="320.0" x2="60.0" y2="14.0" stroke="#222222" stroke-width="1.2"/><polygon points="480,316.0 490,320.0 480,324.0" fill="#222222"/><polygon points="56.0,14 60.0,4 64.0,14" fill="#222222"/><text x="488.0" y="346.0" font-family="serif" font-size="11" text-anchor="end" fill="#222222">Q (voos)</text><text x="68.0" y="12.0" font-family="serif" font-size="11" text-anchor="start" fill="#222222">P (preço)</text><polyline points="60.0,245.0 220.0,245.0 460.0,170.0" fill="none" stroke="#1f5fa8" stroke-width="1.6"/><text x="464.0" y="170.0" font-family="serif" font-size="11" text-anchor="start" fill="#1f5fa8">CMgP</text><polyline points="220.0,245.0 432.0,46.2" fill="none" stroke="#b03a2e" stroke-width="1.6"/><text x="436.0" y="46.2" font-family="serif" font-size="11" text-anchor="start" fill="#b03a2e">CMgS</text><polyline points="60.0,70.0 460.0,320.0" fill="none" stroke="#2e7d4f" stroke-width="1.6"/><text x="458.0" y="334.0" font-family="serif" font-size="11" text-anchor="end" fill="#2e7d4f">BMg local</text><polyline points="60.0,20.0 460.0,270.0" fill="none" stroke="#2e7d4f" stroke-width="1.6" stroke-dasharray="5 3"/><text x="458.0" y="264.0" font-family="serif" font-size="11" text-anchor="end" fill="#2e7d4f">BMg social</text><line x1="268.0" y1="200.0" x2="268.0" y2="320.0" stroke="#777777" stroke-width="0.8" stroke-dasharray="4 3"/><text x="268.0" y="334.0" font-family="serif" font-size="10" text-anchor="middle" fill="#222222">Q<tspan dy="3" font-size="9">S</tspan><tspan dy="-3"> </tspan></text><line x1="300.0" y1="170.0" x2="300.0" y2="320.0" stroke="#777777" stroke-width="0.8" stroke-dasharray="4 3"/><text x="300.0" y="334.0" font-family="serif" font-size="10" text-anchor="middle" fill="#222222">Q<tspan dy="3" font-size="9">0</tspan><tspan dy="-3"> </tspan> = Q*</text><line x1="60.0" y1="170.0" x2="300.0" y2="170.0" stroke="#777777" stroke-width="0.8" stroke-dasharray="4 3"/><text x="56.0" y="174.0" font-family="serif" font-size="10" text-anchor="end" fill="#222222">P*</text><circle cx="300.0" cy="220.0" r="2.8" fill="#222222"/><text x="300.0" y="220.0" font-family="serif" font-size="11" text-anchor="start" fill="#222222"></text><circle cx="300.0" cy="170.0" r="2.8" fill="#222222"/><text x="300.0" y="170.0" font-family="serif" font-size="11" text-anchor="start" fill="#222222"></text><circle cx="268.0" cy="200.0" r="2.8" fill="#222222"/><text x="268.0" y="200.0" font-family="serif" font-size="11" text-anchor="start" fill="#222222"></text></svg>
